<?xml version="1.0" encoding="UTF-8" standalone="no"?>
<svg
   xmlns:dc="http://purl.org/dc/elements/1.1/"
   xmlns:cc="http://creativecommons.org/ns#"
   xmlns:rdf="http://www.w3.org/1999/02/22-rdf-syntax-ns#"
   xmlns:svg="http://www.w3.org/2000/svg"
   xmlns="http://www.w3.org/2000/svg"
   xmlns:sodipodi="http://sodipodi.sourceforge.net/DTD/sodipodi-0.dtd"
   xmlns:inkscape="http://www.inkscape.org/namespaces/inkscape"
   version="1.0"
   width="500"
   height="170"
   viewBox="0 0 400 136"
   preserveAspectRatio="xMidYMid meet"
   id="svg3209"
   inkscape:version="0.48.4 r9939"
   sodipodi:docname="signum-temporis-logo.svg">
  <defs
     id="defs3393" />
  <sodipodi:namedview
     pagecolor="#ffffff"
     bordercolor="#666666"
     borderopacity="1"
     objecttolerance="10"
     gridtolerance="10"
     guidetolerance="10"
     inkscape:pageopacity="0"
     inkscape:pageshadow="2"
     inkscape:window-width="1535"
     inkscape:window-height="876"
     id="namedview3391"
     showgrid="false"
     inkscape:zoom="1.8225"
     inkscape:cx="292.5"
     inkscape:cy="91.077642"
     inkscape:window-x="65"
     inkscape:window-y="24"
     inkscape:window-maximized="1"
     inkscape:current-layer="svg3209" />
  <metadata
     id="metadata3211">
Created by potrace 1.8, written by Peter Selinger 2001-2007
<rdf:RDF>
  <cc:Work
     rdf:about="">
    <dc:format>image/svg+xml</dc:format>
    <dc:type
       rdf:resource="http://purl.org/dc/dcmitype/StillImage" />
    <dc:title></dc:title>
  </cc:Work>
</rdf:RDF>
</metadata>
  <g
     transform="matrix(0.097908,0,0,-0.097908,-35.116598,247.05624)"
     id="g3213"
     style="fill:#000000;stroke:none">
    <path
       d="m 1823,2428 c -32,-35 -92,-99 -133,-143 -124,-131 -117,-119 -73,-145 21,-13 54,-33 73,-45 19,-13 96,-60 170,-105 74,-46 158,-98 185,-115 138,-89 299,-185 309,-185 6,0 71,37 144,83 131,81 413,257 525,326 111,69 109,56 25,143 -40,43 -106,113 -147,158 -41,44 -79,80 -84,80 -4,0 -28,-13 -52,-30 -24,-16 -48,-30 -54,-30 -6,0 -11,-4 -11,-10 0,-5 -5,-10 -10,-10 -6,0 -16,-5 -23,-10 -26,-23 -228,-150 -237,-150 -6,0 -10,-4 -10,-10 0,-5 -7,-10 -15,-10 -8,0 -15,-4 -15,-8 0,-5 -10,-14 -22,-19 -19,-8 -31,-5 -68,20 -25,17 -46,34 -48,39 -2,4 -8,8 -13,8 -5,0 -62,35 -127,78 -64,42 -129,83 -143,91 -14,7 -39,24 -54,37 -15,13 -29,24 -31,24 -1,0 -28,-28 -61,-62 z m 103,-13 c 16,-14 34,-25 39,-25 6,0 26,-13 45,-30 19,-16 39,-29 43,-30 4,0 60,-35 125,-78 64,-43 125,-82 135,-85 18,-7 19,-19 13,-205 -3,-108 -5,-198 -6,-199 -1,-7 -29,-2 -32,5 -3,8 -146,99 -190,121 -16,7 -28,17 -28,22 0,5 -5,9 -11,9 -6,0 -31,14 -56,30 -24,17 -46,30 -50,30 -3,0 -25,14 -50,30 -24,17 -46,30 -49,30 -3,0 -25,13 -48,29 -24,17 -67,43 -97,60 -29,16 -55,34 -57,39 -2,6 10,23 25,40 15,16 68,75 117,130 49,56 92,102 96,102 4,0 20,-11 36,-25 z m 930,-22 c 16,-21 50,-60 75,-88 92,-98 119,-130 119,-142 0,-7 -4,-13 -8,-13 -5,0 -80,-43 -168,-96 -249,-151 -255,-154 -260,-154 -3,0 -10,-5 -17,-10 -15,-13 -217,-140 -218,-137 0,1 -2,76 -5,167 -3,91 -6,181 -7,200 -2,28 3,37 21,45 12,5 22,13 22,17 0,5 5,8 11,8 5,0 37,18 69,40 32,22 62,40 65,40 3,0 15,9 27,20 11,10 35,26 53,34 18,9 38,22 45,31 7,8 19,15 26,15 8,0 14,5 14,10 0,6 6,10 13,10 8,0 22,9 33,19 30,31 58,26 90,-16 z"
       id="path3235"
       inkscape:connector-curvature="0" />
    <path
       d="m 1546,2095 c -16,-25 -14,-45 4,-45 10,0 111,-64 375,-238 88,-58 169,-111 180,-117 44,-24 164,-106 170,-115 11,-17 54,-11 64,9 8,14 7,20 -2,24 -8,3 -81,49 -163,103 -82,55 -157,103 -166,109 -10,5 -83,53 -163,105 -80,52 -156,102 -170,110 -13,8 -44,30 -69,47 l -44,33 -16,-25 z"
       id="path3281"
       inkscape:connector-curvature="0" />
    <path
       d="m 3115,2100 c -5,-8 -150,-106 -320,-215 -27,-18 -122,-79 -210,-137 -88,-57 -174,-113 -192,-123 -26,-15 -30,-22 -22,-37 13,-24 55,-23 87,3 45,35 512,339 522,339 4,0 10,4 12,9 4,10 157,111 169,111 15,0 10,26 -9,43 -21,20 -28,21 -37,7 z"
       id="path3283"
       inkscape:connector-curvature="0" />
    <path
       d="m 436,1451 c -27,-27 -28,-30 -15,-65 8,-21 33,-53 61,-77 53,-45 60,-71 24,-94 -20,-13 -28,-14 -45,-4 -11,7 -22,23 -26,36 -9,37 -25,27 -25,-15 0,-32 5,-41 25,-50 44,-20 72,-14 110,23 46,47 40,73 -32,144 -63,63 -68,94 -15,99 17,2 32,-1 32,-7 0,-6 9,-15 20,-21 18,-10 20,-8 17,22 -2,32 -4,33 -52,35 -43,2 -54,-2 -79,-26 z"
       id="path3309"
       inkscape:connector-curvature="0" />
    <path
       d="m 648,1474 c -4,-3 -2,-20 3,-37 11,-37 10,-188 -1,-226 -7,-25 -6,-26 41,-26 26,0 42,3 36,7 -14,8 -17,216 -4,261 7,26 6,27 -31,27 -21,0 -41,-3 -44,-6 z"
       id="path3311"
       inkscape:connector-curvature="0" />
    <path
       d="m 837,1437 c -114,-113 -31,-271 137,-260 75,5 86,15 86,78 0,29 5,57 10,60 20,12 0,22 -44,23 -46,1 -68,-11 -40,-22 11,-4 14,-18 12,-53 -3,-54 -14,-60 -75,-44 -97,27 -115,175 -26,220 48,24 127,6 137,-33 8,-33 28,-5 24,35 l -3,34 -87,3 -88,3 -43,-44 z"
       id="path3313"
       inkscape:connector-curvature="0" />
    <path
       d="m 1150,1356 c 0,-69 -4,-136 -10,-150 -9,-24 -8,-25 19,-20 16,4 32,1 35,-5 4,-6 12,-9 17,-6 5,4 3,12 -4,20 -14,14 -33,173 -22,184 4,3 49,-40 102,-97 52,-56 99,-100 104,-96 5,3 9,61 9,129 0,72 4,126 10,130 24,15 9,35 -24,35 -37,0 -57,-16 -32,-26 12,-5 15,-25 15,-97 l 0,-92 -102,108 c -56,59 -105,107 -109,107 -5,0 -8,-56 -8,-124 z"
       id="path3315"
       inkscape:connector-curvature="0" />
    <path
       d="m 1481,1470 c -11,-6 -11,-8 0,-12 10,-3 14,-29 15,-100 2,-111 15,-146 64,-170 44,-22 77,-21 115,1 48,28 64,73 65,179 0,58 4,92 11,92 5,0 7,5 4,10 -3,6 -24,10 -45,10 -21,0 -42,-4 -45,-10 -3,-5 1,-10 9,-10 14,0 16,-17 16,-109 0,-123 -4,-131 -70,-134 -61,-2 -70,15 -68,132 1,53 5,101 10,108 5,6 5,13 1,16 -14,8 -68,6 -82,-3 z"
       id="path3317"
       inkscape:connector-curvature="0" />
    <path
       d="m 2054,1463 c -3,-10 -15,-38 -26,-63 -12,-25 -29,-64 -39,-87 -10,-24 -21,-43 -24,-43 -7,0 -76,139 -85,170 -4,16 -14,25 -26,25 -16,0 -20,-10 -26,-60 -17,-162 -22,-185 -39,-203 -21,-24 -14,-35 11,-19 14,8 25,8 44,-1 14,-6 26,-8 26,-3 0,5 -7,12 -16,15 -14,5 -15,18 -10,78 6,75 20,106 32,72 24,-69 65,-149 75,-149 12,0 72,108 83,150 9,33 25,4 27,-50 3,-92 8,-105 40,-105 15,0 31,-5 34,-10 4,-6 11,-8 16,-5 5,3 0,15 -10,27 -19,20 -34,87 -49,212 -7,59 -26,84 -38,49 z"
       id="path3319"
       inkscape:connector-curvature="0" />
    <path
       d="m 2280,1460 c -11,-21 -13,-50 -4,-50 3,0 17,9 31,20 14,11 36,20 49,20 23,0 23,-3 26,-102 3,-98 -7,-158 -25,-158 -4,0 -5,-5 -2,-10 5,-8 11,-7 21,1 9,7 30,9 57,5 32,-4 38,-3 25,5 -16,9 -18,27 -18,135 l 0,126 33,-7 c 17,-4 34,-11 35,-16 9,-22 32,-7 32,20 l 0,30 -125,0 c -112,0 -126,-2 -135,-19 z"
       id="path3321"
       inkscape:connector-curvature="0" />
    <path
       d="m 2585,1472 c -3,-3 -1,-10 5,-17 15,-18 8,-254 -9,-264 -8,-6 -9,-11 -3,-15 6,-3 13,-2 17,4 3,5 39,10 80,10 78,0 91,7 79,42 -6,19 -7,19 -16,5 -6,-11 -22,-17 -48,-17 l -39,0 2,52 c 2,43 6,53 21,56 12,3 26,-5 37,-19 19,-26 23,-21 31,32 4,25 4,26 -36,18 -50,-9 -56,-6 -56,31 0,59 24,76 64,45 27,-20 53,-20 37,-1 -8,10 -9,16 -1,21 25,16 -7,25 -81,24 -43,-2 -81,-5 -84,-7 z"
       id="path3323"
       inkscape:connector-curvature="0" />
    <path
       d="m 2846,1464 c -3,-9 -9,-46 -12,-83 -4,-36 -10,-74 -15,-83 -5,-9 -9,-32 -9,-52 0,-20 -8,-42 -17,-52 -17,-17 -16,-17 16,-11 20,4 39,3 47,-4 18,-14 18,0 0,23 -9,12 -10,33 -6,70 4,29 5,58 3,64 -2,7 0,15 6,19 7,4 23,-21 41,-62 37,-85 44,-96 57,-100 11,-4 83,134 83,157 0,6 4,9 9,5 5,-3 13,-41 17,-85 6,-78 7,-80 33,-80 15,0 32,-5 39,-12 9,-9 15,-9 24,0 9,9 8,12 -5,12 -9,0 -17,7 -17,15 0,8 -4,15 -9,15 -8,0 -18,62 -30,189 -3,36 -11,66 -17,68 -11,4 -22,-17 -80,-144 -13,-28 -28,-54 -33,-57 -7,-5 -64,106 -90,177 -12,30 -26,35 -35,11 z"
       id="path3325"
       inkscape:connector-curvature="0" />
    <path
       d="m 3207,1473 c -4,-3 -2,-12 5,-20 14,-17 13,-240 -1,-257 -7,-9 5,-12 44,-12 39,0 49,3 39,11 -10,7 -14,38 -15,110 -3,173 -2,174 45,130 34,-32 34,-68 -1,-93 -25,-18 -26,-21 -10,-27 25,-10 44,0 67,37 27,44 25,58 -8,96 -27,30 -33,32 -94,32 -35,0 -68,-3 -71,-7 z"
       id="path3327"
       inkscape:connector-curvature="0" />
    <path
       d="m 3503,1457 c -17,-12 -39,-37 -48,-56 -18,-38 -29,-121 -16,-121 5,0 12,-11 15,-25 8,-31 71,-74 119,-82 47,-7 96,16 136,64 27,33 31,46 31,96 0,68 -21,106 -72,131 -46,23 -126,20 -165,-7 z m 143,-29 c 65,-74 55,-182 -21,-214 -28,-12 -37,-11 -62,1 -41,20 -58,43 -70,90 -19,79 23,145 92,145 31,0 47,-6 61,-22 z"
       id="path3329"
       inkscape:connector-curvature="0" />
    <path
       d="m 3796,1471 c -4,-5 0,-11 6,-13 17,-6 18,-255 1,-266 -6,-4 13,-7 43,-8 30,0 50,2 46,5 -13,10 -35,88 -28,100 15,24 44,9 82,-44 21,-30 47,-55 56,-55 9,0 23,-3 32,-6 30,-11 16,14 -34,66 -27,28 -50,55 -50,60 0,5 11,26 25,47 32,47 29,71 -14,100 -26,18 -48,23 -97,23 -35,0 -65,-4 -68,-9 z m 128,-37 c 32,-31 12,-114 -28,-114 -24,0 -31,20 -28,74 3,46 7,56 22,56 10,0 26,-7 34,-16 z"
       id="path3331"
       inkscape:connector-curvature="0" />
    <path
       d="m 4087,1473 c -4,-3 -2,-12 3,-18 6,-7 11,-66 11,-131 0,-91 -3,-121 -14,-129 -11,-8 1,-10 44,-10 35,0 52,3 44,8 -12,6 -15,34 -15,137 0,85 4,130 11,130 5,0 7,5 4,10 -7,11 -78,14 -88,3 z"
       id="path3333"
       inkscape:connector-curvature="0" />
    <path
       d="m 4278,1459 c -21,-16 -28,-29 -28,-55 0,-30 9,-44 56,-89 57,-54 64,-76 30,-104 -19,-16 -66,3 -73,29 -8,28 -33,25 -33,-4 0,-48 60,-79 108,-55 49,24 62,41 62,78 0,30 -8,44 -45,81 -55,54 -67,74 -59,94 9,24 61,21 74,-4 16,-31 32,-24 28,13 -3,30 -5,32 -48,34 -33,2 -52,-3 -72,-18 z"
       id="path3335"
       inkscape:connector-curvature="0" />
  </g>
</svg>
